P1
# CREATOR: GIMP PNM Filter Version 1.1
48 320
0000000000000000000000000000000000000000000000000000000000000000000000
0000000000000000000000000010000000000000000000000000000000000000000000
0000110000000000000000000000000000000000000000000000001000000000000000
0000000000000000000000000000001100000000000000000000000000000000000000
0000000010000000000000000000000000000000000000000000000010000000000000
0000000000000000000000000000000000100000000000000000000000000000000000
0000000000000000000000000000000000000000000000000000000000000000000000
0000000000000000000000000000000000000000000000000000000000000000000000
0000000000000000000000000000000000000000000000000000000000000000000000
0000000000000000000000000000000000000000000000000000000000000000000000
0000000000000000000000000000000000000000000000000000000000000000000000
0000000000000000000000000000000000000000000000110000000000000000000000
0000000000000000000000000010000000000000000000000000000000000000000000
0000010000000000000000000000000000000000000000000000011000000000000000
0000000000000000000000000000111001000000000000000000000000000000000000
0000000001100000000000000000000000000000000000000000000101000000000000
0000000000000000000000000000000001010000000000000000000000000000000000
0000000000000100000000000000000000000000000000000000000000001000000000
0000000000000000000000000000000000001100000000000000000000000000000000
0000000000000011110000000000000000000000000000000000000000000001001000
0000000000000000000000000000000000000000110100000000000000000000000000
0000000000000000001110000000000000000000000000000000000000000000001111
1000000000000000000000000000000000000000000000000100000000000000000000
0000000000000000000000000000100000000000000000000000000000000000000000
0000001100000000000000000000000000000000000000000011110010000000000000
0000000000000000000000000011000011000000000000000000000000000000000000
0000110010100000000000000000000000000000000000000000010010100000000000
0000000000000000000000000000000000001000000000000000000000000000000000
0000000010000100000000000000000000000000000000000000000011111000000000
0000000000000000000000000000000000001100000000000000000000000000000000
0000000000000011000000000000000000000000000000000000000000001100100000
0000000000000000000000000000000000000000101000000000000000000000000000
0000000000000000111100000000000000000000000000000000000000000000000000
0000000000000000000000000000000000000000000011111100000000000000000000
0000000000000000000001000000100000000000000000000000000000000000000010
0000000100000000000000000000000000000000000000100000000110000000000000
0000000000000000000000001100001110010000000000000000000000000000000000
0011111100011000000000000000000000000000000000000011111001010000000000
0000000000000000000000000000110010010100000000000000000000000000000000
0000000100000001000000000000000000000000000000000000001011000010000000
0000000000000000000000000000000010111111000000000000000000000000000000
0000000000110011111100000000000000000000000000000000000000010010010010
0000000000000000000000000000000000000011111101000000000000000000000000
0000000000000011000011100000000000000000000000000000000000000000000111
1110000000000000000000000000000000000000000010000001000000000000000000
0000000000000000000001000000001000000000000000000000000000000000000001
0000000011000000000000000000000000000000000000111000111100100000000000
0000000000000000000000001111110000110000000000000000000000000000000000
0011111100101000000000000000000000000000000000000001100100101000000000
0000000000000000000000000000001000000010000000000000000000000000000000
0000000101100001000000000000000000000000000000000000000100111110000000
0000000000000000000000000000000001010011000000000000000000000000000000
0000000000010100110000000000000000000000000000000000000000001111001000
0000000000000000000000000000000000000001001010000000000000000000000000
0000000000000000001111000000000000000000000000000000000000000000000000
0000000000000000000000000000000000000000000000111111000000000000000000
0000000000000000000000010000001000000000000000000000000000000000000000
1000000001000000000000000000000000000000000000001000000001100000000000
0000000000000000000000000111000011100100000000000000000000000000000000
0001111111000110000000000000000000000000000000000001111110010100000000
0000000000000000000000000000001100100101000000000000000000000000000000
0000000001000000010000000000000000000000000000000000000010110000100000
0000000000000000000000000000000000101111110000000000000000000000000000
0000000000001100111111000000000000000000000000000000000000010100100100
1000000000000000000000000000000000000100111111010000000000000000000000
0000000000000000110000111000000000000000000000000000000000000000000001
1111100000000000000000000000000000000000000000100000010000000000000000
0000000000000000000000010000000010000000000000000000000000000000000000
0100000000110000000000000000000000000000000000001110001111001000000000
0000000000000000000000000011111100001100000000000000000000000000000000
0000111111001010000000000000000000000000000000000000011001001010000000
0000000000000000000000000000000010000000100000000000000000000000000000
0000000001011000010000000000000000000000000000000000000001001111100000
0000000000000000000000000000000000010100110000000000000000000000000000
0000000000000101001100000000000000000000000000000000000000000011110010
0000000000000000000000000000000000000000010010100000000000000000000000
0000000000000000000011110000000000000000000000000000000000000000000000
0000000000000000000000000000000000000000000000001111110000000000000000
0000000000000000000000000100000010000000000000000000000000000000000000
0010000000010000000000000000000000000000000000000010000000011000000000
0000000000000000000000000001110000111001000000000000000000000000000000
0000011111110001100000000000000000000000000000000000011111100101000000
0000000000000000000000000000000011001001010000000000000000000000000000
0000000000010000000100000000000000000000000000000000000000101100001000
0000000000000000000000000000000000001011111100000000000000000000000000
0000000000000011001111110000000000000000000000000000000000000101001001
0010000000000000000000000000000000000001001111110100000000000000000000
0000000000000000001100001110000000000000000000000000000000000000000000
0111111000000000000000000000000000000000000000001000000100000000000000
0000000000000000000000000100000000100000000000000000000000000000000000
0001000000001100000000000000000000000000000000000011100011110010000000
0000000000000000000000000000111111000011000000000000000000000000000000
0000001111110010100000000000000000000000000000000000000110010010100000
0000000000000000000000000000000000100000001000000000000000000000000000
0000000000010110000100000000000000000000000000000000000000010011111000
0000000000000000000000000000000000000101001100000000000000000000000000
0000000000000001010011000000000000000000000000000000000000000000111100
1000000000000000000000000000000000000000000100101000000000000000000000
0000000000000000000000111100000000000000000000000000000000000000000000
0000000000000000000000000000000000000000000000000011111100000000000000
0000000000000000000000000001000000100000000000000000000000000000000000
0000100000000100000000000000000000000000000000000000100000000110000000
0000000000000000000000000000011100001110010000000000000000000000000000
0000000111111100011000000000000000000000000000000000000111111001010000
0000000000000000000000000000000000110010010100000000000000000000000000
0000000000000100000001000000000000000000000000000000000000001011000010
0000000000000000000000000000000000000010111111000000000000000000000000
0000000000000000110011111100000000000000000000000000000000000001010010
0100100000000000000000000000000000000000010011111101000000000000000000
0000000000000000000011000011100000000000000000000000000000000000000000
0001111110000000000000000000000000000000000000000010000001000000000000
0000000000000000000000000001000000001000000000000000000000000000000000
0000010000000011000000000000000000000000000000000000111000111100100000
0000000000000000000000000000001111110000110000000000000000000000000000
0000000011111100101000000000000000000000000000000000000001100100101000
0000000000000000000000000000000000001000000010000000000000000000000000
0000000000000101100001000000000000000000000000000000000000000100111110
0000000000000000000000000000000000000001010011000000000000000000000000
0000000000000000010100110000000000000000000000000000000000000000001111
0010000000000000000000000000000000000000000001001010000000000000000000
0000000000000000000000001111000000000000000000000000000000000000000000
0000000000000000000000000000000000000000000000000000111111000000000000
0000000000000000000000000000010000001000000000000000000000000000000000
0000001000000001000000000000000000000000000000000000001000000001100000
0000000000000000000000000000000111000011100100000000000000000000000000
0000000001111111000110000000000000000000000000000000000001111110010100
0000000000000000000000000000000000001100100101000000000000000000000000
0000000000000001000000010000000000000000000000000000000000000010110000
1000000000000000000000000000000000000000101111110000000000000000000000
0000000000000000001100111111000000000000000000000000000000000000010100
1001001000000000000000000000000000000000000100111111010000000000000000
0000000000000000000000110000111000000000000000000000000000000000000000
0000011111100000000000000000000000000000000000000000100000010000000000
0000000000000000000000000000010000000010000000000000000000000000000000
0000000100000000110000000000000000000000000000000000001110001111001000
0000000000000000000000000000000011111100001100000000000000000000000000
0000000000111111001010000000000000000000000000000000000000011001001010
0000000000000000000000000000000000000010000000100000000000000000000000
0000000000000001011000010000000000000000000000000000000000000001001111
1000000000000000000000000000000000000000010100110000000000000000000000
0000000000000000000101001100000000000000000000000000000000000000000011
1100100000000000000000000000000000000000000000010010100000000000000000
0000000000000000000000000011110000000000000000000000000000000000000000
0000000000000000000000000000000000000000000000000000001111110000000000
0000000000000000000000000000000100000010000000000000000000000000000000
0000000010000000010000000000000000000000000000000000000010000000011000
0000000000000000000000000000000001110000111001000000000000000000000000
0000000000011111110001100000000000000000000000000000000000011111100101
0000000000000000000000000000000000000011001001010000000000000000000000
0000000000000000010000000100000000000000000000000000000000000000101100
0010000000000000000000000000000000000000001011111100000000000000000000
0000000000000000000011001111110000000000000000000000000000000000000101
0010010010000000000000000000000000000000000001001111110100000000000000
0000000000000000000000001100001110000000000000000000000000000000000000
0000000111111000000000000000000000000000000000000000001000000100000000
0000000000000000000000000000000100000000100000000000000000000000000000
0000000001000000001100000000000000000000000000000000000011100011110010
0000000000000000000000000000000000111111000011000000000000000000000000
0000000000001111110010100000000000000000000000000000000000000110010010
1000000000000000000000000000000000000000100000001000000000000000000000
0000000000000000010110000100000000000000000000000000000000000000010011
1110000000000000000000000000000000000000000101001100000000000000000000
0000000000000000000001010011000000000000000000000000000000000000000000
1111001000000000000000000000000000000000000000000100101000000000000000
0000000000000000000000000000111100000000000000000000000000000000000000
0000000000000000000000000000000000000000000000000000000011111100000000
0000000000000000000000000000000001000000100000000000000000000000000000
0000000000100000000100000000000000000000000000000000000000100000000110
0000000000000000000000000000000000011100001110010000000000000000000000
0000000000000111111100011000000000000000000000000000000000000111111001
0100000000000000000000000000000000000000110010010100000000000000000000
0000000000000000000100000001000000000000000000000000000000000000001011
0000100000000000000000000000000000000000000010111111000000000000000000
0000000000000000000000110011111100000000000000000000000000000000000001
0100100100100000000000000000000000000000000000010011111101000000000000
0000000000000000000000000011000011100000000000000000000000000000000000
0000000001111110000000000000000000000000000000000000000010000001000000
0000000000000000000000000000000001000000000000000000000000000000000000
0000000000010000000000000000000000000000000000000000000000111000111100
0000000000000000000000000000000000001111110000000000000000000000000000
0000000000000011111100100000000000000000000000000000000000000001100100
1000000000000000000000000000000000000000001000000000000000000000000000
0000000000000000000101100001000000000000000000000000000000000000000100
1111100000000000000000000000000000000000000001010011000000000000000000
0000000000000000000000010100110000000000000000000000000000000000000000
0011110010000000000000000000000000000000000000000001001010000000000000
0000000000000000000000000000001111000000000000000000000000000000000000
0000000000000000000000000000000000000000000000000000000000111100000000
0000000000000000000000000000000000010000000000000000000000000000000000
0000000000001000000000000000000000000000000000000000000000001000000000
0000000000000000000000000000000000000111000000000000000000000000000000
0000000000000001111111000000000000000000000000000000000000000001111110
0000000000000000000000000000000000000000001100100000000000000000000000
0000000000000000000001000000000000000000000000000000000000000000000010
1100000000000000000000000000000000000000000000101111000000000000000000
0000000000000000000000001100110000000000000000000000000000000000000000
0101001000000000000000000000000000000000000000000100111100000000000000
0000000000000000000000000000110000000000000000000000000000000000000000
0000000000010000000000000000000000000000000000000000000000100000000000
0000000000000000000000000000000000010000000000000000000000000000000000
0000000000000100000000000000000000000000000000000000000000001110000000
0000000000000000000000000000000000000011110000000000000000000000000000
0000000000000000111100000000000000000000000000000000000000000000011000
0000000000000000000000000000000000000000000010000000000000000000000000
0000000000000000000001010000000000000000000000000000000000000000000001
0000000000000000000000000000000000000000000000010100000000000000000000
0000000000000000000000000101000000000000000000000000000000000000000000
0000110000000000000000000000000000000000000000000000010000000000000000
0000000000000000000000000000000000000000000000000000000000000000000000
0000000000000000000000000000000000000000000000000000000000000000000000
0000000000000000000000000000000000000000000000000000000000000000000000
0000000000000000000000000000000000000000000000000000000000000000000000
0000000000000000000000000000000000000001000000000000000000000000000000
0000000000000000010000000000000000000000000000000000000000000000010000
0000000000000000000000000000000000000000000000000000000000000000000000
0000000000000000000000000000000000000000000000000000000000000000000000
0000000000000000000000000000000000000000000000000000000000000000000000
0000000000000000000000000000000000000000000000000000000000000000000000
0001000000000000000000000000000000000000000000000001000000000000000000
000000000000000000000000000000